<?xml version="1.0" encoding="utf-8"?>
<svg width="17" height="18" viewBox="0 0 17 18" fill="none" xmlns="http://www.w3.org/2000/svg">
  <path fill-rule="evenodd" clip-rule="evenodd" d="M 8.566 16.5 C 12.708 16.5 16.066 13.142 16.066 9 C 16.066 4.858 12.708 1.5 8.566 1.5 C 4.424 1.5 1.066 4.858 1.066 9 C 1.066 13.142 4.424 16.5 8.566 16.5 Z M 8.566 17.5 C 13.26 17.5 17.066 13.694 17.066 9 C 17.066 4.306 13.26 0.5 8.566 0.5 C 3.871 0.5 0.066 4.306 0.066 9 C 0.066 13.694 3.871 17.5 8.566 17.5 Z" style="fill: rgb(231, 68, 54);"/>
  <path d="M6.30273 5.66991C6.42673 5.55391 6.56273 5.44391 6.71073 5.33991C6.86273 5.23591 7.02673 5.14391 7.20273 5.06391C7.38273 4.98391 7.57473 4.92191 7.77873 4.87791C7.98673 4.82991 8.21073 4.80591 8.45073 4.80591C8.76673 4.80591 9.05873 4.85191 9.32673 4.94391C9.59873 5.03591 9.83273 5.16591 10.0287 5.33391C10.2247 5.50191 10.3787 5.70591 10.4907 5.94591C10.6027 6.18591 10.6587 6.45591 10.6587 6.75591C10.6587 7.05991 10.6127 7.32191 10.5207 7.54191C10.4327 7.76191 10.3187 7.95591 10.1787 8.12391C10.0427 8.28791 9.89273 8.43191 9.72873 8.55591C9.56873 8.67591 9.41673 8.78991 9.27273 8.89791C9.12873 9.00591 9.00473 9.11391 8.90073 9.22191C8.80073 9.32991 8.74273 9.44991 8.72673 9.58191L8.61873 10.4999H7.88673L7.81473 9.50391C7.79873 9.32391 7.83273 9.16791 7.91673 9.03591C8.00073 8.89991 8.11073 8.77391 8.24673 8.65791C8.38273 8.53791 8.53273 8.42191 8.69673 8.30991C8.86073 8.19391 9.01273 8.06591 9.15273 7.92591C9.29673 7.78591 9.41673 7.62791 9.51273 7.45191C9.60873 7.27191 9.65673 7.05791 9.65673 6.80991C9.65673 6.63791 9.62273 6.48191 9.55473 6.34191C9.48673 6.20191 9.39473 6.08391 9.27873 5.98791C9.16273 5.88791 9.02473 5.81191 8.86473 5.75991C8.70873 5.70791 8.54073 5.68191 8.36073 5.68191C8.11673 5.68191 7.90673 5.71191 7.73073 5.77191C7.55873 5.83191 7.41273 5.89791 7.29273 5.96991C7.17273 6.04191 7.07473 6.10791 6.99873 6.16791C6.92673 6.22791 6.86673 6.25791 6.81873 6.25791C6.71873 6.25791 6.64073 6.21191 6.58473 6.11991L6.30273 5.66991ZM7.47273 12.8399C7.47273 12.7359 7.49073 12.6379 7.52673 12.5459C7.56673 12.4539 7.61873 12.3739 7.68273 12.3059C7.75073 12.2379 7.83073 12.1839 7.92273 12.1439C8.01473 12.1039 8.11273 12.0839 8.21673 12.0839C8.32073 12.0839 8.41873 12.1039 8.51073 12.1439C8.60273 12.1839 8.68273 12.2379 8.75073 12.3059C8.81873 12.3739 8.87274 12.4539 8.91273 12.5459C8.95273 12.6379 8.97273 12.7359 8.97273 12.8399C8.97273 12.9479 8.95273 13.0479 8.91273 13.1399C8.87274 13.2279 8.81873 13.3059 8.75073 13.3739C8.68273 13.4419 8.60273 13.4939 8.51073 13.5299C8.41873 13.5699 8.32073 13.5899 8.21673 13.5899C8.11273 13.5899 8.01473 13.5699 7.92273 13.5299C7.83073 13.4939 7.75073 13.4419 7.68273 13.3739C7.61873 13.3059 7.56673 13.2279 7.52673 13.1399C7.49073 13.0479 7.47273 12.9479 7.47273 12.8399Z" style="fill: rgb(231, 68, 54);"/>
</svg>